<svg width="16" height="16" viewBox="0 0 16 16" fill="none" xmlns="http://www.w3.org/2000/svg">
<path d="M7.99301 1.33301C4.31301 1.33301 1.33301 4.31967 1.33301 7.99967C1.33301 11.6797 4.31301 14.6663 7.99301 14.6663C11.6797 14.6663 14.6663 11.6797 14.6663 7.99967C14.6663 4.31967 11.6797 1.33301 7.99301 1.33301ZM7.99967 13.333C5.05301 13.333 2.66634 10.9463 2.66634 7.99967C2.66634 5.05301 5.05301 2.66634 7.99967 2.66634C10.9463 2.66634 13.333 5.05301 13.333 7.99967C13.333 10.9463 10.9463 13.333 7.99967 13.333ZM8.33301 4.66634H7.33301V8.66634L10.833 10.7663L11.333 9.94634L8.33301 8.16634V4.66634Z" fill="#333333"/>
</svg>
