<svg width="16" height="16" viewBox="0 0 16 16" fill="none" xmlns="http://www.w3.org/2000/svg">
<path d="M12.9532 8.65301C12.9799 8.43967 12.9999 8.22634 12.9999 7.99967C12.9999 7.77301 12.9799 7.55967 12.9532 7.34634L14.3599 6.24634C14.4866 6.14634 14.5199 5.96634 14.4399 5.81967L13.1066 3.51301C13.0466 3.40634 12.9332 3.34634 12.8132 3.34634C12.7732 3.34634 12.7332 3.35301 12.6999 3.36634L11.0399 4.03301C10.6932 3.76634 10.3199 3.54634 9.91323 3.37967L9.65989 1.61301C9.63989 1.45301 9.49989 1.33301 9.33323 1.33301H6.66656C6.49989 1.33301 6.35989 1.45301 6.33989 1.61301L6.08656 3.37967C5.67989 3.54634 5.30656 3.77301 4.95989 4.03301L3.29989 3.36634C3.25989 3.35301 3.21989 3.34634 3.17989 3.34634C3.06656 3.34634 2.95323 3.40634 2.89323 3.51301L1.55989 5.81967C1.47323 5.96634 1.51323 6.14634 1.63989 6.24634L3.04656 7.34634C3.01989 7.55967 2.99989 7.77967 2.99989 7.99967C2.99989 8.21967 3.01989 8.43967 3.04656 8.65301L1.63989 9.75301C1.51323 9.85301 1.47989 10.033 1.55989 10.1797L2.89323 12.4863C2.95323 12.593 3.06656 12.653 3.18656 12.653C3.22656 12.653 3.26656 12.6463 3.29989 12.633L4.95989 11.9663C5.30656 12.233 5.67989 12.453 6.08656 12.6197L6.33989 14.3863C6.35989 14.5463 6.49989 14.6663 6.66656 14.6663H9.33323C9.49989 14.6663 9.63989 14.5463 9.65989 14.3863L9.91323 12.6197C10.3199 12.453 10.6932 12.2263 11.0399 11.9663L12.6999 12.633C12.7399 12.6463 12.7799 12.653 12.8199 12.653C12.9332 12.653 13.0466 12.593 13.1066 12.4863L14.4399 10.1797C14.5199 10.033 14.4866 9.85301 14.3599 9.75301L12.9532 8.65301ZM11.6332 7.51301C11.6599 7.71968 11.6666 7.85967 11.6666 7.99967C11.6666 8.13967 11.6532 8.28634 11.6332 8.48634L11.5399 9.23967L12.1332 9.70634L12.8532 10.2663L12.3866 11.073L11.5399 10.733L10.8466 10.453L10.2466 10.9063C9.95989 11.1197 9.68656 11.2797 9.41323 11.393L8.70656 11.6797L8.59989 12.433L8.46656 13.333H7.53323L7.40656 12.433L7.29989 11.6797L6.59323 11.393C6.30656 11.273 6.03989 11.1197 5.77323 10.9197L5.16656 10.453L4.45989 10.7397L3.61323 11.0797L3.14656 10.273L3.86656 9.71301L4.45989 9.24634L4.36656 8.49301C4.34656 8.28634 4.33323 8.13301 4.33323 7.99967C4.33323 7.86634 4.34656 7.71301 4.36656 7.51301L4.45989 6.75968L3.86656 6.29301L3.14656 5.73301L3.61323 4.92634L4.45989 5.26634L5.15323 5.54634L5.75323 5.09301C6.03989 4.87967 6.31323 4.71967 6.58656 4.60634L7.29323 4.31967L7.39989 3.56634L7.53323 2.66634H8.45989L8.58656 3.56634L8.69323 4.31967L9.39989 4.60634C9.68656 4.72634 9.95323 4.87967 10.2199 5.07967L10.8266 5.54634L11.5332 5.25967L12.3799 4.91967L12.8466 5.72634L12.1332 6.29301L11.5399 6.75968L11.6332 7.51301ZM7.99989 5.33301C6.52656 5.33301 5.33323 6.52634 5.33323 7.99967C5.33323 9.47301 6.52656 10.6663 7.99989 10.6663C9.47323 10.6663 10.6666 9.47301 10.6666 7.99967C10.6666 6.52634 9.47323 5.33301 7.99989 5.33301ZM7.99989 9.33301C7.26656 9.33301 6.66656 8.73301 6.66656 7.99967C6.66656 7.26634 7.26656 6.66634 7.99989 6.66634C8.73323 6.66634 9.33323 7.26634 9.33323 7.99967C9.33323 8.73301 8.73323 9.33301 7.99989 9.33301Z" fill="#333333"/>
</svg>
