<svg width="52" height="52" viewBox="0 0 52 52" fill="none" xmlns="http://www.w3.org/2000/svg">
    <path fill-rule="evenodd" clip-rule="evenodd" d="M22.2396 1.5576C24.3164 -0.519199 27.6836 -0.519199 29.7604 1.5576L50.4424 22.2396C52.5192 24.3164 52.5192 27.6836 50.4424 29.7604L29.7604 50.4424C27.6836 52.5192 24.3164 52.5192 22.2396 50.4424L1.5576 29.7604C-0.519198 27.6836 -0.519199 24.3164 1.5576 22.2396L22.2396 1.5576ZM7.86952 23.9857C6.75695 25.0982 6.75695 26.902 7.86952 28.0146C8.98209 29.1272 10.7859 29.1272 11.8985 28.0146L20.8964 19.0167C22.0089 17.9042 22.0089 16.1003 20.8964 14.9878C19.7838 13.8752 17.98 13.8752 16.8674 14.9878L7.86952 23.9857ZM28.0142 11.8989C26.9016 13.0115 25.0977 13.0116 23.9851 11.899C22.8726 10.7864 22.8727 8.98251 23.9852 7.86995C25.0978 6.75738 26.9017 6.75728 28.0143 7.86985C29.1269 8.98242 29.1268 10.7863 28.0142 11.8989ZM36.072 15.928C34.9595 14.8154 33.1556 14.8154 32.0431 15.928L15.9275 32.0436C14.8149 33.1562 14.8149 34.96 15.9275 36.0726C17.04 37.1851 18.8439 37.1851 19.9564 36.0726L36.072 19.957C37.1846 18.8444 37.1846 17.0406 36.072 15.928ZM40.101 23.9859C41.2136 22.8734 43.0174 22.8734 44.13 23.9859C45.2426 25.0985 45.2426 26.9023 44.13 28.0149L35.1322 37.0127C34.0196 38.1253 32.2158 38.1253 31.1032 37.0127C29.9906 35.9002 29.9906 34.0963 31.1032 32.9838L40.101 23.9859ZM28.0144 40.1015C26.9018 38.989 25.098 38.989 23.9854 40.1015C22.8729 41.2141 22.8729 43.0179 23.9854 44.1304C25.098 45.243 26.9018 45.2431 28.0144 44.1305C29.1269 43.0179 29.1269 41.2141 28.0144 40.1015Z" fill="#F83420" />
</svg>
    