<svg width="16" height="16" viewBox="0 0 16 16" fill="none" xmlns="http://www.w3.org/2000/svg">
<path d="M13.3335 12.6667V4.66667H2.66683V12.6667H13.3335ZM13.3335 2C13.6871 2 14.0263 2.14048 14.2763 2.39052C14.5264 2.64057 14.6668 2.97971 14.6668 3.33333V12.6667C14.6668 13.0203 14.5264 13.3594 14.2763 13.6095C14.0263 13.8595 13.6871 14 13.3335 14H2.66683C2.31321 14 1.97407 13.8595 1.72402 13.6095C1.47397 13.3594 1.3335 13.0203 1.3335 12.6667V3.33333C1.3335 2.59333 1.9335 2 2.66683 2H13.3335ZM8.66683 11.3333V10H12.0002V11.3333H8.66683ZM6.38683 8.66667L3.7135 6H5.60016L7.80016 8.2C8.06016 8.46 8.06016 8.88667 7.80016 9.14667L5.6135 11.3333H3.72683L6.38683 8.66667Z" fill="#333333"/>
</svg>
