<svg width="16" height="16" viewBox="0 0 16 16" fill="none" xmlns="http://www.w3.org/2000/svg">
<path fill-rule="evenodd" clip-rule="evenodd" d="M14.5454 0H4.36363C3.56363 0 2.90908 0.654545 2.90908 1.45455V11.6364C2.90908 12.4364 3.56363 13.0909 4.36363 13.0909H14.5454C15.3454 13.0909 16 12.4364 16 11.6364V1.45455C16 0.654545 15.3454 0 14.5454 0ZM0.727273 2.90908C0.327273 2.90908 0 3.23635 0 3.63635V14.5454C0 15.3454 0.654545 16 1.45455 16H12.3636C12.7636 16 13.0909 15.6727 13.0909 15.2727C13.0909 14.8727 12.7636 14.5454 12.3636 14.5454H2.18182C1.78182 14.5454 1.45455 14.2182 1.45455 13.8182V3.63635C1.45455 3.23635 1.12727 2.90908 0.727273 2.90908ZM5.0909 11.6364H13.8182C14.2182 11.6364 14.5454 11.3091 14.5454 10.9091V2.18186C14.5454 1.78186 14.2182 1.45459 13.8182 1.45459H5.0909C4.6909 1.45459 4.36362 1.78186 4.36362 2.18186V10.9091C4.36362 11.3091 4.6909 11.6364 5.0909 11.6364Z" fill="#333333"/>
</svg>
