<svg width="145" height="38" viewBox="0 0 145 38" fill="none" xmlns="http://www.w3.org/2000/svg">
<path fill-rule="evenodd" clip-rule="evenodd" d="M16.1809 1.11084C17.6919 -0.37028 20.1418 -0.37028 21.6528 1.11084L36.7004 15.8608C38.2114 17.3419 38.2114 19.7433 36.7004 21.2244L21.6528 35.9744C20.1418 37.4555 17.6919 37.4555 16.1809 35.9744L1.13326 21.2244C-0.377754 19.7433 -0.377754 17.3419 1.13326 15.8608L16.1809 1.11084ZM5.72563 17.106C4.91616 17.8995 4.91616 19.1859 5.72563 19.9794C6.5351 20.7728 7.84752 20.7728 8.65699 19.9794L15.2036 13.5623C16.0131 12.7688 16.0131 11.4824 15.2036 10.6889C14.3941 9.89546 13.0817 9.89546 12.2722 10.6889L5.72563 17.106ZM20.3823 8.48603C19.5728 9.27949 18.2603 9.27956 17.4509 8.4861C16.6414 7.69264 16.6415 6.40612 17.4509 5.61266C18.2604 4.8192 19.5729 4.81913 20.3824 5.61259C21.1919 6.40605 21.1918 7.69257 20.3823 8.48603ZM26.245 11.3595C25.4355 10.566 24.1231 10.566 23.3136 11.3595L11.5884 22.8528C10.7789 23.6462 10.7789 24.9327 11.5884 25.7261C12.3978 26.5196 13.7102 26.5196 14.5197 25.7261L26.245 14.2328C27.0544 13.4394 27.0544 12.1529 26.245 11.3595ZM29.1763 17.1062C29.9858 16.3128 31.2982 16.3128 32.1077 17.1062C32.9172 17.8997 32.9172 19.1861 32.1077 19.9796L25.5611 26.3966C24.7517 27.1901 23.4392 27.1901 22.6298 26.3966C21.8203 25.6032 21.8203 24.3167 22.6298 23.5233L29.1763 17.1062ZM20.3824 28.5995C19.573 27.806 18.2606 27.806 17.4511 28.5995C16.6416 29.3929 16.6416 30.6794 17.4511 31.4728C18.2605 32.2663 19.573 32.2663 20.3825 31.4728C21.1919 30.6794 21.1919 29.3929 20.3824 28.5995Z" fill="#F83420"/>
<path d="M59.6863 12.299H51.1854V17.1085H59.0477V20.933H51.1854V28.7557H47.1064V8.47456H59.6863V12.299Z" fill="#F83420"/>
<path d="M71.8721 14.2692H75.6851V28.7557H71.8721V27.1332C70.946 28.4853 69.478 29.1613 67.468 29.1613C65.8522 29.1613 64.5122 28.6301 63.4482 27.5678C62.4038 26.5054 61.8816 25.0375 61.8816 23.1639V14.2692H65.6946V22.4422C65.6946 23.4079 65.9606 24.1516 66.4926 24.6731C67.0247 25.1753 67.7341 25.4264 68.6208 25.4264C69.606 25.4264 70.3943 25.127 70.9854 24.5282C71.5766 23.9294 71.8721 23.0313 71.8721 21.8337V14.2692Z" fill="#F83420"/>
<path d="M82.7509 18.3833C82.7509 18.7696 83.007 19.0883 83.5194 19.3394C84.0514 19.5712 84.6918 19.7837 85.4406 19.9769C86.1894 20.1507 86.9382 20.3825 87.687 20.6722C88.4358 20.9426 89.0663 21.4062 89.5787 22.0629C90.1107 22.7196 90.3767 23.5405 90.3767 24.5256C90.3767 26.0129 89.8053 27.1622 88.6624 27.9734C87.5392 28.7653 86.1303 29.1613 84.4356 29.1613C81.401 29.1613 79.332 28.012 78.2285 25.7135L81.539 23.8882C81.9725 25.1437 82.938 25.7715 84.4356 25.7715C85.7953 25.7715 86.4751 25.3562 86.4751 24.5256C86.4751 24.1393 86.2091 23.8303 85.677 23.5985C85.1647 23.3474 84.5342 23.1253 83.7854 22.9321C83.0366 22.7389 82.2878 22.4975 81.539 22.2078C80.7902 21.918 80.1498 21.4641 79.6177 20.846C79.1054 20.2086 78.8492 19.4167 78.8492 18.4703C78.8492 17.0409 79.3813 15.9206 80.4454 15.1094C81.5291 14.2788 82.8691 13.8635 84.4652 13.8635C85.6672 13.8635 86.7608 14.134 87.7461 14.6748C88.7313 15.1963 89.5097 15.9496 90.0812 16.9347L86.8298 18.6731C86.3569 17.688 85.5687 17.1954 84.4652 17.1954C83.9725 17.1954 83.5588 17.3017 83.2238 17.5141C82.9085 17.7266 82.7509 18.0163 82.7509 18.3833Z" fill="#F83420"/>
<path d="M96.1959 23.048C96.7082 24.8636 98.0974 25.7715 100.364 25.7715C101.822 25.7715 102.925 25.2886 103.674 24.3228L106.748 26.0612C105.29 28.1279 103.142 29.1613 100.304 29.1613C97.861 29.1613 95.9003 28.437 94.4224 26.9883C92.9445 25.5397 92.2056 23.7144 92.2056 21.5124C92.2056 19.3298 92.9347 17.5141 94.3929 16.0655C95.851 14.5975 97.723 13.8635 100.009 13.8635C102.176 13.8635 103.96 14.5975 105.359 16.0655C106.778 17.5335 107.487 19.3491 107.487 21.5124C107.487 21.9953 107.438 22.5072 107.339 23.048H96.1959ZM96.1368 20.1507H103.674C103.457 19.1656 103.004 18.4316 102.314 17.9487C101.644 17.4659 100.876 17.2244 100.009 17.2244C98.9842 17.2244 98.1368 17.4852 97.4669 18.0067C96.7969 18.5089 96.3535 19.2236 96.1368 20.1507Z" fill="#F83420"/>
<path d="M118.48 13.8635C120.47 13.8635 122.165 14.6072 123.564 16.0945C124.983 17.5624 125.692 19.3684 125.692 21.5124C125.692 23.6564 124.983 25.4721 123.564 26.9593C122.165 28.4273 120.47 29.1613 118.48 29.1613C116.411 29.1613 114.815 28.4563 113.692 27.0463V28.7557H109.879V8.47456H113.692V15.9786C114.815 14.5686 116.411 13.8635 118.48 13.8635ZM114.844 24.4677C115.613 25.221 116.588 25.5976 117.77 25.5976C118.953 25.5976 119.928 25.221 120.697 24.4677C121.485 23.6951 121.879 22.71 121.879 21.5124C121.879 20.3149 121.485 19.3394 120.697 18.5861C119.928 17.8135 118.953 17.4272 117.77 17.4272C116.588 17.4272 115.613 17.8135 114.844 18.5861C114.076 19.3394 113.692 20.3149 113.692 21.5124C113.692 22.71 114.076 23.6951 114.844 24.4677Z" fill="#F83420"/>
<path d="M130.049 12.5308C129.418 12.5308 128.867 12.3087 128.394 11.8644C127.941 11.4008 127.714 10.86 127.714 10.2419C127.714 9.62382 127.941 9.08299 128.394 8.61942C128.867 8.15586 129.418 7.92407 130.049 7.92407C130.699 7.92407 131.251 8.15586 131.704 8.61942C132.177 9.08299 132.414 9.62382 132.414 10.2419C132.414 10.86 132.177 11.4008 131.704 11.8644C131.251 12.3087 130.699 12.5308 130.049 12.5308ZM128.157 28.7557V14.2692H131.97V28.7557H128.157Z" fill="#F83420"/>
<path d="M144.001 17.8618H140.661V23.8882C140.661 24.3904 140.79 24.7574 141.046 24.9892C141.302 25.221 141.676 25.3562 142.169 25.3948C142.662 25.4141 143.272 25.4045 144.001 25.3658V28.7557C141.381 29.0454 139.528 28.804 138.445 28.0314C137.381 27.2587 136.848 25.8777 136.848 23.8882V17.8618H134.277V14.2692H136.848V10.2129H140.661V14.2692H144.001V17.8618Z" fill="#F83420"/>
</svg>
