<svg width="16" height="16" viewBox="0 0 16 16" fill="none" xmlns="http://www.w3.org/2000/svg">
<path fill-rule="evenodd" clip-rule="evenodd" d="M0.351992 7.1502C-0.117331 7.61952 -0.117331 8.38044 0.351992 8.84976C0.821315 9.31908 1.58224 9.31908 2.05156 8.84976L5.84721 5.05412C6.31653 4.5848 6.31653 3.82388 5.84721 3.35456C5.37789 2.88524 4.61696 2.88524 4.14764 3.35456L0.351992 7.1502ZM8.84976 2.05157C8.38044 2.5209 7.61948 2.52094 7.15016 2.05162C6.68083 1.58229 6.68087 0.821333 7.1502 0.352012C7.61952 -0.11731 8.38048 -0.117351 8.84981 0.35197C9.31913 0.821291 9.31909 1.58225 8.84976 2.05157ZM12.2489 3.75118C11.7795 3.28186 11.0186 3.28187 10.5493 3.75119L3.75113 10.5493C3.28181 11.0186 3.28181 11.7796 3.75113 12.2489C4.22046 12.7182 4.98138 12.7182 5.4507 12.2489L12.2489 5.45075C12.7182 4.98143 12.7182 4.22051 12.2489 3.75118ZM13.9484 7.15032C14.4178 6.681 15.1787 6.681 15.648 7.15032C16.1173 7.61964 16.1173 8.38056 15.648 8.84988L11.8524 12.6455C11.3831 13.1148 10.6221 13.1148 10.1528 12.6455C9.6835 12.1762 9.6835 11.4152 10.1528 10.9459L13.9484 7.15032ZM8.84984 13.9485C8.38052 13.4791 7.6196 13.4791 7.15028 13.9485C6.68097 14.4178 6.68097 15.1787 7.15028 15.648C7.61959 16.1173 8.38053 16.1173 8.84985 15.648C9.31917 15.1787 9.31916 14.4178 8.84984 13.9485Z" fill="#FB310A"/>
</svg>
