<svg width="149" height="48" viewBox="0 0 149 48" fill="none" xmlns="http://www.w3.org/2000/svg">
<g id="Group 1">
<path id="Vector" d="M64.3748 12.2671H53.732C53.1341 12.2671 52.6558 12.4465 52.297 12.8052C51.9383 13.164 51.7589 13.6423 51.7589 14.2103V32.2671C51.7589 32.8351 51.9383 33.3134 52.297 33.7021C52.6558 34.0907 53.1341 34.2701 53.732 34.2701C54.3299 34.2701 54.8082 34.0907 55.167 33.7021C55.5257 33.3433 55.7051 32.865 55.7051 32.2671V24.7036H63.7768C64.9727 24.7036 65.6603 24.0758 65.6603 22.9995C65.6603 21.9233 64.9727 21.2955 63.7768 21.2955H55.7051V15.6154H64.3748C65.5706 15.6154 66.2582 14.9876 66.2582 13.9113C66.2582 12.8949 65.5706 12.2671 64.3748 12.2671Z" fill="white"/>
<path id="Vector_2" d="M80.8471 18.9338C80.4883 18.605 80.01 18.4256 79.442 18.4256C78.874 18.4256 78.3956 18.605 78.0369 18.9637C77.6782 19.3224 77.4689 19.7709 77.4689 20.3389V27.3344C77.4689 28.4704 77.1699 29.3673 76.5421 30.025C75.9143 30.6827 75.1072 31.0115 74.0608 31.0115C73.1939 31.0115 72.596 30.8023 72.2073 30.3239C71.8187 29.8456 71.6094 29.0982 71.6094 28.022V20.309C71.6094 19.741 71.43 19.2627 71.0713 18.9039C70.7125 18.5751 70.2641 18.3957 69.6662 18.3957C69.0683 18.3957 68.59 18.5751 68.2312 18.9039C67.8725 19.2627 67.6931 19.7111 67.6931 20.309V28.022C67.6931 32.1177 69.6662 34.3 73.433 34.3C74.5093 34.3 75.4659 34.0609 76.3329 33.5825C76.7813 33.3434 77.1998 33.0145 77.5586 32.6558C77.5885 33.1042 77.7678 33.463 78.0668 33.7619C78.3956 34.0908 78.8441 34.2701 79.3822 34.2701C79.9502 34.2701 80.4285 34.0908 80.7873 33.7619C81.146 33.4032 81.3553 32.9547 81.3553 32.4166V20.309C81.3852 19.741 81.2058 19.2627 80.8471 18.9338Z" fill="white"/>
<path id="Vector_3" d="M94.2104 25.8396C93.4331 25.451 92.3568 25.152 90.9817 24.8531C89.457 24.5242 88.7993 24.2253 88.5003 24.0459C88.1715 23.8366 87.9921 23.5377 87.9921 23.1191C87.9921 22.6408 88.1715 22.312 88.5601 22.0429C88.9787 21.744 89.5766 21.5945 90.2941 21.5945C90.9219 21.5945 91.46 21.6842 91.8785 21.8336C92.3269 22.013 92.8053 22.2522 93.3135 22.5511C93.6423 22.7305 93.8815 22.88 94.0609 22.9697C94.3 23.0893 94.5392 23.1191 94.7784 23.1191C95.167 23.1191 95.5258 22.9398 95.7948 22.6408C96.0639 22.3419 96.1835 21.9831 96.1835 21.5347C96.1835 20.8172 95.7948 20.1595 95.0175 19.6513C94.3897 19.2327 93.7021 18.9039 92.895 18.6946C92.1177 18.4854 91.2806 18.3658 90.4734 18.3658C89.3075 18.3658 88.2612 18.5751 87.3344 18.9637C86.3778 19.3822 85.6304 19.9502 85.0923 20.6976C84.5542 21.445 84.2552 22.312 84.2552 23.2686C84.2552 24.5242 84.7036 25.5108 85.5706 26.2283C86.4077 26.9159 87.6932 27.454 89.5168 27.8426C90.5033 28.0519 91.2507 28.2611 91.7589 28.4405C92.297 28.6498 92.5661 28.8292 92.6558 28.9487C92.8053 29.0982 92.8651 29.3075 92.8651 29.6064C92.8651 30.0549 92.6857 30.3837 92.2672 30.6528C91.8187 30.9517 91.1311 31.1012 90.2642 31.1012C89.457 31.1012 88.7993 31.0115 88.2911 30.8322C87.753 30.6528 87.1849 30.3837 86.6169 30.0848C85.9891 29.726 85.5108 29.5467 85.182 29.5467C84.7634 29.5467 84.4047 29.726 84.1655 30.025C83.9263 30.3239 83.8068 30.6827 83.8068 31.1012C83.8068 31.4898 83.8964 31.8187 84.1057 32.1475C84.2851 32.4465 84.584 32.7156 85.0026 32.9846C86.3479 33.8516 88.1117 34.3 90.2044 34.3C92.0878 34.3 93.6423 33.8815 94.7784 33.0444C95.9742 32.1774 96.5721 31.0115 96.5721 29.5765C96.5721 28.6797 96.3927 27.9323 96.0041 27.3344C95.6453 26.7365 95.0474 26.2582 94.2104 25.8396Z" fill="white"/>
<path id="Vector_4" d="M112.327 25.72C112.327 23.5078 111.729 21.6842 110.503 20.3688C109.278 19.0235 107.633 18.3359 105.571 18.3359C104.136 18.3359 102.85 18.6647 101.744 19.3523C100.608 20.0399 99.741 20.9966 99.1132 22.1924C98.4854 23.3882 98.1864 24.7933 98.1864 26.3478C98.1864 28.7694 98.9039 30.7126 100.309 32.1475C101.714 33.5526 103.657 34.2701 106.049 34.2701C106.826 34.2701 107.663 34.1505 108.53 33.9413C109.397 33.7021 110.174 33.4031 110.892 32.9846C111.759 32.5063 112.177 31.8785 112.177 31.1311C112.177 30.6827 112.058 30.3239 111.819 30.025C111.55 29.6961 111.191 29.5466 110.802 29.5466C110.563 29.5466 110.264 29.6363 109.935 29.7858C109.606 29.9353 109.487 30.025 109.427 30.0549C108.859 30.3538 108.321 30.593 107.813 30.8022C107.334 30.9816 106.736 31.0713 106.079 31.0713C103.717 31.0713 102.432 29.8456 102.133 27.3643H110.832C111.759 27.3643 112.327 26.7664 112.327 25.72ZM108.799 24.7335H102.133C102.312 23.7469 102.671 22.9697 103.179 22.4016C103.777 21.7439 104.584 21.445 105.63 21.445C106.617 21.445 107.394 21.7439 107.932 22.3717C108.411 22.9398 108.71 23.717 108.799 24.7335Z" fill="white"/>
<path id="Vector_5" d="M126.557 19.3523C125.511 18.6946 124.315 18.3658 122.97 18.3658C121.804 18.3658 120.757 18.6348 119.861 19.143C119.382 19.4121 118.994 19.7409 118.635 20.1296V13.9412C118.635 13.4031 118.455 12.9547 118.097 12.6258C117.738 12.297 117.29 12.1475 116.751 12.1475C116.183 12.1475 115.705 12.3269 115.346 12.6557C114.958 13.0145 114.778 13.4629 114.778 14.0309V32.3867C114.778 32.9547 114.958 33.4031 115.346 33.7619C115.705 34.1206 116.183 34.3 116.751 34.3C117.319 34.3 117.798 34.1206 118.157 33.7619C118.455 33.4629 118.635 33.0743 118.665 32.6258C119.023 33.0145 119.442 33.3433 119.92 33.6124C120.817 34.1206 121.864 34.3598 123.029 34.3598C124.345 34.3598 125.571 34.001 126.617 33.3433C127.663 32.6557 128.5 31.6991 129.068 30.4734C129.636 29.2776 129.935 27.8725 129.935 26.3179C129.935 24.7634 129.636 23.3583 129.068 22.1625C128.411 20.9368 127.574 20.01 126.557 19.3523ZM125.87 26.288C125.87 27.8127 125.541 29.0085 124.883 29.8456C124.255 30.6528 123.358 31.0414 122.222 31.0414C121.056 31.0414 120.189 30.6528 119.562 29.8755C118.934 29.0683 118.605 27.8725 118.605 26.3478C118.605 24.8232 118.934 23.6273 119.562 22.8202C120.189 22.0429 121.056 21.6542 122.222 21.6542C123.388 21.6542 124.285 22.0429 124.913 22.8202C125.571 23.5974 125.87 24.7634 125.87 26.288Z" fill="white"/>
<path id="Vector_6" d="M135.884 12.6558C135.466 12.2671 134.898 12.0878 134.24 12.0878C133.553 12.0878 132.985 12.2671 132.566 12.6558C132.147 13.0444 131.908 13.5825 131.908 14.2103C131.908 14.8381 132.118 15.3763 132.566 15.7948C132.985 16.1834 133.553 16.3927 134.24 16.3927C134.928 16.3927 135.496 16.1834 135.914 15.7948C136.333 15.4062 136.572 14.868 136.572 14.2103C136.542 13.5825 136.333 13.0444 135.884 12.6558Z" fill="white"/>
<path id="Vector_7" d="M134.24 18.4255C133.702 18.4255 133.224 18.575 132.865 18.9039C132.476 19.2327 132.267 19.711 132.267 20.3388V32.3867C132.267 33.0145 132.476 33.4629 132.865 33.7918C133.224 34.0907 133.702 34.2402 134.24 34.2402C134.778 34.2402 135.227 34.0907 135.615 33.7619C136.004 33.433 136.184 32.9547 136.184 32.3568V20.3089C136.184 19.711 136.004 19.2327 135.615 18.9039C135.227 18.575 134.778 18.4255 134.24 18.4255Z" fill="white"/>
<path id="Vector_8" d="M148.261 31.5496C147.992 31.2806 147.603 31.1311 147.035 31.0713L146.198 31.0115C145.541 30.9517 145.032 30.7724 144.733 30.4136C144.434 30.0549 144.255 29.4869 144.255 28.6498V21.9233H146.736C147.274 21.9233 147.693 21.7739 147.992 21.5048C148.321 21.2058 148.5 20.8172 148.5 20.309C148.5 19.8307 148.351 19.4121 148.022 19.1431C147.723 18.8441 147.274 18.7245 146.766 18.7245H144.285V16.1236C144.285 15.5556 144.106 15.0773 143.717 14.7185C143.358 14.3897 142.88 14.2103 142.312 14.2103C141.744 14.2103 141.266 14.3897 140.907 14.7185C140.548 15.0773 140.369 15.5257 140.369 16.1236V18.7245H139.023C138.485 18.7245 138.067 18.874 137.768 19.1431C137.439 19.442 137.289 19.8307 137.289 20.309C137.289 21.3254 137.917 21.9233 139.053 21.9233H140.399V28.4704C140.399 30.2641 140.847 31.6393 141.714 32.596C142.581 33.5526 143.896 34.0907 145.6 34.2103L146.408 34.2701C146.527 34.2701 146.617 34.2701 146.706 34.2701C147.274 34.2701 147.693 34.1505 148.022 33.9413C148.44 33.6423 148.68 33.1939 148.68 32.6558C148.68 32.1774 148.53 31.8187 148.261 31.5496Z" fill="white"/>
<path id="Vector_9" d="M21.744 4.61394L4.61394 21.744C3.44802 22.9099 3.44802 24.7933 4.61394 25.9592L21.5347 42.88C22.7006 44.0459 24.584 44.0459 25.75 42.88L42.88 25.75C44.0459 24.584 44.0459 22.7006 42.88 21.5347L25.9592 4.61394C24.7933 3.44802 22.9099 3.44802 21.744 4.61394ZM22.1326 39.3524C21.2657 38.4854 21.2657 37.0803 22.1326 36.2133C22.9996 35.3464 24.4047 35.3464 25.2716 36.2133C26.1386 37.0803 26.1386 38.4854 25.2716 39.3524C24.4047 40.2193 22.9996 40.2193 22.1326 39.3524ZM39.3524 25.2716L29.9652 34.6588C29.0982 35.5257 27.6932 35.5257 26.8262 34.6588C25.9592 33.7918 25.9592 32.3867 26.8262 31.5198L36.2133 22.1326C37.0803 21.2657 38.4854 21.2657 39.3524 22.1326C40.2193 22.9996 40.2193 24.4047 39.3524 25.2716ZM34.6588 20.5482L20.5781 34.6289C19.7111 35.4959 18.306 35.4959 17.4391 34.6289C16.5721 33.7619 16.5721 32.3568 17.4391 31.4899L31.5198 17.4092C32.3867 16.5422 33.7918 16.5422 34.6588 17.4092C35.5257 18.306 35.5257 19.7111 34.6588 20.5482ZM8.05191 22.1326L17.4391 12.7455C18.306 11.8785 19.7111 11.8785 20.5781 12.7455C21.445 13.6124 21.445 15.0175 20.5781 15.8845L11.161 25.2716C10.2941 26.1386 8.88898 26.1386 8.02201 25.2716C7.18494 24.4047 7.18494 22.9996 8.05191 22.1326ZM29.9652 15.8546L15.8546 29.9652C14.9876 30.8322 13.5825 30.8322 12.7156 29.9652C11.8486 29.0982 11.8486 27.6932 12.7156 26.8262L26.7963 12.7455C27.6633 11.8785 29.0683 11.8785 29.9353 12.7455C30.8322 13.6124 30.8322 14.9876 29.9652 15.8546ZM25.2716 11.161C24.4047 12.028 22.9996 12.028 22.1326 11.161C21.2657 10.2941 21.2657 8.88898 22.1326 8.02201C22.9996 7.15505 24.4047 7.15505 25.2716 8.02201C26.1087 8.91887 26.1087 10.2941 25.2716 11.161Z" fill="white"/>
<g id="Rectangle">
<mask id="path-10-outside-1" maskUnits="userSpaceOnUse" x="0.171573" y="-0.0416301" width="47.3762" height="47.3762" fill="black">
<rect fill="white" x="0.171573" y="-0.0416301" width="47.3762" height="47.3762"/>
<path d="M4.44892 25.414C3.65158 24.6359 3.64377 23.3562 4.43157 22.5684L22.5684 4.43157C23.3562 3.64377 24.6359 3.65158 25.414 4.44892L42.867 22.3329C43.6318 23.1166 43.6242 24.3697 42.8499 25.144L25.144 42.8499C24.3697 43.6242 23.1167 43.6318 22.3329 42.867L4.44892 25.414Z"/>
</mask>
<path d="M4.44892 25.414C3.65158 24.6359 3.64377 23.3562 4.43157 22.5684L22.5684 4.43157C23.3562 3.64377 24.6359 3.65158 25.414 4.44892L42.867 22.3329C43.6318 23.1166 43.6242 24.3697 42.8499 25.144L25.144 42.8499C24.3697 43.6242 23.1167 43.6318 22.3329 42.867L4.44892 25.414Z" stroke="white" stroke-width="4" mask="url(#path-10-outside-1)"/>
</g>
</g>
</svg>
