<svg width="16" height="16" viewBox="0 0 16 16" fill="none" xmlns="http://www.w3.org/2000/svg">
<path d="M2.66683 4.00065H1.3335V13.334C1.3335 14.0673 1.9335 14.6673 2.66683 14.6673H12.0002V13.334H2.66683V4.00065ZM13.3335 1.33398H5.3335C4.60016 1.33398 4.00016 1.93398 4.00016 2.66732V10.6673C4.00016 11.4007 4.60016 12.0007 5.3335 12.0007H13.3335C14.0668 12.0007 14.6668 11.4007 14.6668 10.6673V2.66732C14.6668 1.93398 14.0668 1.33398 13.3335 1.33398ZM13.3335 10.6673H5.3335V2.66732H13.3335V10.6673ZM6.66683 6.00065H12.0002V7.33398H6.66683V6.00065ZM6.66683 8.00065H9.3335V9.33398H6.66683V8.00065ZM6.66683 4.00065H12.0002V5.33398H6.66683V4.00065Z" fill="#333333"/>
</svg>
