<svg width="17" height="16" viewBox="0 0 17 16" fill="none" xmlns="http://www.w3.org/2000/svg">
<path d="M8.14654 4.46567L9.38398 3.22824C9.6393 2.97268 9.94246 2.76993 10.2762 2.63157C10.6099 2.49322 10.9675 2.42196 11.3288 2.42188C11.69 2.42179 12.0477 2.49288 12.3815 2.63108C12.7153 2.76929 13.0185 2.97189 13.274 3.22733C13.5294 3.48277 13.732 3.78603 13.8702 4.11979C14.0084 4.45355 14.0795 4.81127 14.0794 5.17251C14.0793 5.53376 14.0081 5.89144 13.8697 6.22514C13.7314 6.55884 13.5286 6.86201 13.2731 7.11732L11.5053 8.88509C11.2499 9.14045 10.9468 9.34302 10.6131 9.48122C10.2795 9.61942 9.92189 9.69055 9.56075 9.69055C9.19962 9.69055 8.84202 9.61942 8.50837 9.48122C8.17473 9.34302 7.87157 9.14045 7.61621 8.88509" stroke="white" stroke-width="1.5" stroke-linecap="round" stroke-linejoin="round"/>
<path d="M8.85378 11.5374L7.61635 12.7748C7.36103 13.0304 7.05786 13.2331 6.72416 13.3715C6.39047 13.5098 6.03278 13.5811 5.67154 13.5812C5.3103 13.5813 4.95258 13.5102 4.61881 13.372C4.28505 13.2338 3.98179 13.0312 3.72635 12.7757C3.47092 12.5203 3.26831 12.217 3.13011 11.8833C2.9919 11.5495 2.92081 11.1918 2.9209 10.8305C2.92098 10.4693 2.99224 10.1116 3.1306 9.77791C3.26896 9.44421 3.4717 9.14104 3.72726 8.88572L5.49503 7.11796C5.75039 6.8626 6.05355 6.66003 6.38719 6.52183C6.72084 6.38363 7.07844 6.3125 7.43957 6.3125C7.80071 6.3125 8.15831 6.38363 8.49195 6.52183C8.8256 6.66003 9.12875 6.8626 9.38412 7.11796" stroke="white" stroke-width="1.5" stroke-linecap="round" stroke-linejoin="round"/>
</svg>
