<svg width="78" height="20" viewBox="0 0 78 20" fill="none" xmlns="http://www.w3.org/2000/svg">
<path fill-rule="evenodd" clip-rule="evenodd" d="M8.72634 0.599075C9.54123 -0.199692 10.8624 -0.199692 11.6773 0.599075L19.7925 8.55371C20.6074 9.35247 20.6074 10.6475 19.7925 11.4463L11.6773 19.4009C10.8624 20.1997 9.54123 20.1997 8.72634 19.4009L0.611166 11.4463C-0.203722 10.6475 -0.203722 9.35247 0.611166 8.5537L8.72634 0.599075ZM3.08783 9.22525C2.65128 9.65316 2.65128 10.3469 3.08783 10.7749C3.52437 11.2028 4.23216 11.2028 4.6687 10.7749L8.19928 7.31412C8.63583 6.88621 8.63583 6.19243 8.19928 5.76452C7.76273 5.33661 7.05495 5.33661 6.6184 5.76452L3.08783 9.22525ZM10.9922 4.5765C10.5556 5.00442 9.84778 5.00445 9.41124 4.57654C8.97469 4.14863 8.97473 3.45481 9.41127 3.0269C9.84782 2.59899 10.5556 2.59895 10.9922 3.02686C11.4287 3.45477 11.4287 4.14859 10.9922 4.5765ZM14.1539 6.12615C13.7173 5.69824 13.0095 5.69824 12.573 6.12615L6.24959 12.3245C5.81304 12.7524 5.81304 13.4462 6.24959 13.8741C6.68613 14.302 7.39392 14.302 7.83047 13.8741L14.1539 7.67575C14.5904 7.24784 14.5904 6.55406 14.1539 6.12615ZM15.7348 9.22536C16.1713 8.79745 16.8791 8.79745 17.3156 9.22536C17.7522 9.65327 17.7522 10.3471 17.3156 10.775L13.7851 14.2357C13.3485 14.6636 12.6408 14.6636 12.2042 14.2357C11.7677 13.8078 11.7677 13.114 12.2042 12.6861L15.7348 9.22536ZM10.9922 15.4237C10.5557 14.9958 9.8479 14.9958 9.41136 15.4237C8.97482 15.8516 8.97482 16.5453 9.41135 16.9732C9.84789 17.4012 10.5557 17.4012 10.9922 16.9733C11.4288 16.5454 11.4288 15.8516 10.9922 15.4237Z" fill="#F83420"/>
<path d="M32.1886 6.63283H27.6041V9.2266H31.8442V11.2891H27.6041V15.5079H25.4043V4.57032H32.1886V6.63283Z" fill="#F83420"/>
<path d="M38.7604 7.69534H40.8167V15.5079H38.7604V14.6329C38.2609 15.3621 37.4692 15.7266 36.3853 15.7266C35.5139 15.7266 34.7912 15.4402 34.2174 14.8673C33.6541 14.2943 33.3725 13.5027 33.3725 12.4922V7.69534H35.4288V12.103C35.4288 12.6239 35.5723 13.0249 35.8592 13.3062C36.1462 13.577 36.5287 13.7124 37.007 13.7124C37.5383 13.7124 37.9634 13.5509 38.2822 13.228C38.601 12.9051 38.7604 12.4207 38.7604 11.7749V7.69534Z" fill="#F83420"/>
<path d="M44.6273 9.9141C44.6273 10.1224 44.7654 10.2943 45.0417 10.4297C45.3287 10.5547 45.674 10.6693 46.0779 10.7735C46.4817 10.8672 46.8855 10.9922 47.2893 11.1485C47.6932 11.2943 48.0332 11.5443 48.3095 11.8985C48.5964 12.2527 48.7399 12.6954 48.7399 13.2266C48.7399 14.0287 48.4317 14.6485 47.8154 15.086C47.2096 15.5131 46.4498 15.7266 45.5359 15.7266C43.8993 15.7266 42.7835 15.1069 42.1884 13.8673L43.9737 12.8829C44.2075 13.56 44.7282 13.8985 45.5359 13.8985C46.2691 13.8985 46.6358 13.6745 46.6358 13.2266C46.6358 13.0183 46.4923 12.8516 46.2054 12.7266C45.9291 12.5912 45.589 12.4714 45.1852 12.3672C44.7814 12.2631 44.3776 12.1329 43.9737 11.9766C43.5699 11.8204 43.2245 11.5756 42.9376 11.2422C42.6613 10.8985 42.5231 10.4714 42.5231 9.96098C42.5231 9.19014 42.8101 8.58597 43.3839 8.14847C43.9684 7.70055 44.691 7.47659 45.5518 7.47659C46.2001 7.47659 46.7899 7.62242 47.3212 7.91409C47.8526 8.19534 48.2723 8.60159 48.5805 9.13285L46.8271 10.0704C46.572 9.5391 46.1469 9.27348 45.5518 9.27348C45.2861 9.27348 45.063 9.33077 44.8823 9.44535C44.7123 9.55994 44.6273 9.71619 44.6273 9.9141Z" fill="#F83420"/>
<path d="M51.8782 12.4297C52.1545 13.4089 52.9037 13.8985 54.1258 13.8985C54.9122 13.8985 55.5073 13.6381 55.9111 13.1173L57.5689 14.0548C56.7825 15.1694 55.6242 15.7266 54.0939 15.7266C52.7762 15.7266 51.7188 15.336 50.9217 14.5548C50.1247 13.7735 49.7262 12.7891 49.7262 11.6016C49.7262 10.4245 50.1194 9.44535 50.9058 8.6641C51.6922 7.87242 52.7018 7.47659 53.9345 7.47659C55.1035 7.47659 56.0652 7.87242 56.8197 8.6641C57.5849 9.45577 57.9674 10.4349 57.9674 11.6016C57.9674 11.862 57.9409 12.1381 57.8877 12.4297H51.8782ZM51.8463 10.8672H55.9111C55.7942 10.336 55.5498 9.94015 55.1779 9.67973C54.8165 9.41931 54.4021 9.2891 53.9345 9.2891C53.3819 9.2891 52.9249 9.42973 52.5636 9.71098C52.2023 9.98181 51.9632 10.3672 51.8463 10.8672Z" fill="#F83420"/>
<path d="M63.8959 7.47659C64.9692 7.47659 65.8832 7.87763 66.6377 8.67972C67.4028 9.47139 67.7854 10.4454 67.7854 11.6016C67.7854 12.7579 67.4028 13.737 66.6377 14.5391C65.8832 15.3308 64.9692 15.7266 63.8959 15.7266C62.7801 15.7266 61.9193 15.3464 61.3135 14.586V15.5079H59.2572V4.57031H61.3135V8.61722C61.9193 7.8568 62.7801 7.47659 63.8959 7.47659ZM61.9352 13.1954C62.3497 13.6016 62.8757 13.8048 63.5133 13.8048C64.151 13.8048 64.677 13.6016 65.0914 13.1954C65.5165 12.7787 65.7291 12.2475 65.7291 11.6016C65.7291 10.9558 65.5165 10.4297 65.0914 10.0235C64.677 9.60681 64.151 9.39848 63.5133 9.39848C62.8757 9.39848 62.3497 9.60681 61.9352 10.0235C61.5208 10.4297 61.3135 10.9558 61.3135 11.6016C61.3135 12.2475 61.5208 12.7787 61.9352 13.1954Z" fill="#F83420"/>
<path d="M70.1351 6.75783C69.7951 6.75783 69.4975 6.63804 69.2425 6.39845C68.9981 6.14845 68.8759 5.85678 68.8759 5.52345C68.8759 5.19011 68.9981 4.89844 69.2425 4.64844C69.4975 4.39844 69.7951 4.27344 70.1351 4.27344C70.4858 4.27344 70.7834 4.39844 71.0278 4.64844C71.2829 4.89844 71.4104 5.19011 71.4104 5.52345C71.4104 5.85678 71.2829 6.14845 71.0278 6.39845C70.7834 6.63804 70.4858 6.75783 70.1351 6.75783ZM69.115 15.5079V7.69534H71.1713V15.5079H69.115Z" fill="#F83420"/>
<path d="M77.6597 9.63285H75.8584V12.8829C75.8584 13.1537 75.9275 13.3516 76.0656 13.4766C76.2038 13.6016 76.4057 13.6745 76.6714 13.6954C76.937 13.7058 77.2665 13.7006 77.6597 13.6798V15.5079C76.2463 15.6641 75.2473 15.5339 74.6629 15.1173C74.089 14.7006 73.8021 13.9558 73.8021 12.8829V9.63285H72.4153V7.69534H73.8021V5.50782H75.8584V7.69534H77.6597V9.63285Z" fill="#F83420"/>
</svg>
