<svg width="16" height="16" viewBox="0 0 16 16" fill="none" xmlns="http://www.w3.org/2000/svg">
<path d="M7.33325 11.9997H8.66659V10.6663H7.33325V11.9997ZM7.99992 1.33301C4.31992 1.33301 1.33325 4.31967 1.33325 7.99967C1.33325 11.6797 4.31992 14.6663 7.99992 14.6663C11.6799 14.6663 14.6666 11.6797 14.6666 7.99967C14.6666 4.31967 11.6799 1.33301 7.99992 1.33301ZM7.99992 13.333C5.05992 13.333 2.66659 10.9397 2.66659 7.99967C2.66659 5.05967 5.05992 2.66634 7.99992 2.66634C10.9399 2.66634 13.3333 5.05967 13.3333 7.99967C13.3333 10.9397 10.9399 13.333 7.99992 13.333ZM7.99992 3.99967C6.52659 3.99967 5.33325 5.19301 5.33325 6.66634H6.66659C6.66659 5.93301 7.26659 5.33301 7.99992 5.33301C8.73325 5.33301 9.33325 5.93301 9.33325 6.66634C9.33325 7.99967 7.33325 7.83301 7.33325 9.99967H8.66659C8.66659 8.49967 10.6666 8.33301 10.6666 6.66634C10.6666 5.19301 9.47325 3.99967 7.99992 3.99967Z" fill="#333333"/>
</svg>
