<svg width="16" height="15" viewBox="0 0 16 15" fill="none" xmlns="http://www.w3.org/2000/svg">
<path d="M14.0425 8.235C14.0734 7.995 14.0965 7.755 14.0965 7.5C14.0965 7.245 14.0734 7.005 14.0425 6.765L15.6694 5.5275C15.8159 5.415 15.8545 5.2125 15.762 5.0475L14.2199 2.4525C14.1505 2.3325 14.0194 2.265 13.8806 2.265C13.8344 2.265 13.7881 2.2725 13.7495 2.2875L11.8297 3.0375C11.4287 2.7375 10.9969 2.49 10.5266 2.3025L10.2336 0.315C10.2105 0.135 10.0486 0 9.85579 0H6.77163C6.57887 0 6.41696 0.135 6.39383 0.315L6.10083 2.3025C5.6305 2.49 5.19871 2.745 4.79777 3.0375L2.87788 2.2875C2.83162 2.2725 2.78536 2.265 2.7391 2.265C2.60802 2.265 2.47694 2.3325 2.40755 2.4525L0.865469 5.0475C0.765234 5.2125 0.811496 5.415 0.957994 5.5275L2.58489 6.765C2.55405 7.005 2.53092 7.2525 2.53092 7.5C2.53092 7.7475 2.55405 7.995 2.58489 8.235L0.957994 9.4725C0.811496 9.585 0.772944 9.7875 0.865469 9.9525L2.40755 12.5475C2.47694 12.6675 2.60802 12.735 2.74681 12.735C2.79307 12.735 2.83933 12.7275 2.87788 12.7125L4.79777 11.9625C5.19871 12.2625 5.6305 12.51 6.10083 12.6975L6.39383 14.685C6.41696 14.865 6.57887 15 6.77163 15H9.85579C10.0486 15 10.2105 14.865 10.2336 14.685L10.5266 12.6975C10.9969 12.51 11.4287 12.255 11.8297 11.9625L13.7495 12.7125C13.7958 12.7275 13.8421 12.735 13.8883 12.735C14.0194 12.735 14.1505 12.6675 14.2199 12.5475L15.762 9.9525C15.8545 9.7875 15.8159 9.585 15.6694 9.4725L14.0425 8.235ZM12.5159 6.9525C12.5467 7.185 12.5544 7.3425 12.5544 7.5C12.5544 7.6575 12.539 7.8225 12.5159 8.0475L12.4079 8.895L13.0942 9.42L13.9269 10.05L13.3872 10.9575L12.4079 10.575L11.6061 10.26L10.9121 10.77C10.5806 11.01 10.2644 11.19 9.94832 11.3175L9.13102 11.64L9.00765 12.4875L8.85344 13.5H7.77399L7.62749 12.4875L7.50412 11.64L6.68682 11.3175C6.35527 11.1825 6.04686 11.01 5.73844 10.785L5.03679 10.26L4.21949 10.5825L3.24027 10.965L2.70054 10.0575L3.53327 9.4275L4.21949 8.9025L4.11155 8.055C4.08842 7.8225 4.07299 7.65 4.07299 7.5C4.07299 7.35 4.08842 7.1775 4.11155 6.9525L4.21949 6.105L3.53327 5.58L2.70054 4.95L3.24027 4.0425L4.21949 4.425L5.02137 4.74L5.71531 4.23C6.04686 3.99 6.36298 3.81 6.67911 3.6825L7.49641 3.36L7.61978 2.5125L7.77399 1.5H8.84573L8.99223 2.5125L9.1156 3.36L9.9329 3.6825C10.2644 3.8175 10.5729 3.99 10.8813 4.215L11.5829 4.74L12.4002 4.4175L13.3794 4.035L13.9192 4.9425L13.0942 5.58L12.4079 6.105L12.5159 6.9525ZM8.31371 4.5C6.60972 4.5 5.22955 5.8425 5.22955 7.5C5.22955 9.1575 6.60972 10.5 8.31371 10.5C10.0177 10.5 11.3979 9.1575 11.3979 7.5C11.3979 5.8425 10.0177 4.5 8.31371 4.5ZM8.31371 9C7.46557 9 6.77163 8.325 6.77163 7.5C6.77163 6.675 7.46557 6 8.31371 6C9.16186 6 9.85579 6.675 9.85579 7.5C9.85579 8.325 9.16186 9 8.31371 9Z" fill="#333333"/>
</svg>
